<svg width="72" height="72" viewBox="0 0 72 72" fill="none" xmlns="http://www.w3.org/2000/svg">
<path d="M9 6C9 2.68629 11.6863 0 15 0H45L63 20V66C63 69.3137 60.3137 72 57 72H15C11.6863 72 9 69.3137 9 66V6Z" fill="url(#paint0_linear_2919_134217)"/>
<path d="M63 20L45 0V14C45 17.3137 47.6863 20 51 20H63Z" fill="#9CE1FF"/>
<rect x="45" y="31" width="12" height="15" rx="3" fill="url(#paint1_linear_2919_134217)"/>
<rect x="15" y="25" width="12" height="21" rx="3" fill="url(#paint2_linear_2919_134217)"/>
<rect x="30" y="38" width="12" height="8" rx="3" fill="url(#paint3_linear_2919_134217)"/>
<rect x="15" y="51" width="27" height="5" rx="2.5" fill="#EDFCFF"/>
<rect x="45" y="51" width="12" height="5" rx="2.5" fill="#EDFCFF"/>
<rect x="15" y="61" width="42" height="5" rx="2.5" fill="#EDFCFF"/>
<defs>
<linearGradient id="paint0_linear_2919_134217" x1="41.7857" y1="27.6923" x2="16.4374" y2="17.5337" gradientUnits="userSpaceOnUse">
<stop stop-color="#28AFEA"/>
<stop offset="1" stop-color="#5DBCF3"/>
</linearGradient>
<linearGradient id="paint1_linear_2919_134217" x1="52.2" y1="46" x2="46.128" y2="34.7885" gradientUnits="userSpaceOnUse">
<stop stop-color="#0C59A4"/>
<stop offset="1" stop-color="#1493DF"/>
</linearGradient>
<linearGradient id="paint2_linear_2919_134217" x1="22.2" y1="46" x2="12.4268" y2="33.1102" gradientUnits="userSpaceOnUse">
<stop stop-color="#0C59A4"/>
<stop offset="1" stop-color="#1493DF"/>
</linearGradient>
<linearGradient id="paint3_linear_2919_134217" x1="37.2" y1="46" x2="35.1383" y2="38.8622" gradientUnits="userSpaceOnUse">
<stop stop-color="#0C59A4"/>
<stop offset="1" stop-color="#1493DF"/>
</linearGradient>
</defs>
</svg>
